<?xml version="1.0" encoding="utf-8"?>
<!-- Generator: Adobe Illustrator 23.0.0, SVG Export Plug-In . SVG Version: 6.00 Build 0)  -->
<svg version="1.1" id="Layer_1" xmlns="http://www.w3.org/2000/svg" xmlns:xlink="http://www.w3.org/1999/xlink" x="0px" y="0px"
	 viewBox="0 0 1080 1080" style="enable-background:new 0 0 1080 1080;" xml:space="preserve">
<style type="text/css">
	.st0{fill:#3897F1;}
</style>
<g>
	<path class="st0" d="M0.59,684.79c0-7.02,0-14.05,0-21.07c3.86-5.83,7.38-11.93,11.65-17.45c25.31-32.7,50.63-65.4,76.37-97.76
		c5.37-6.75,5.53-11.53,0.01-18.21C75.9,514.9,63.65,499.1,51.69,483.11C34.7,460.4,15.34,439.48,0.59,415.09
		c0-7.73,0-15.45,0-23.18c6.07-11.9,15.99-18.78,28.28-23.64c38.14-15.09,75.94-31.02,114.09-46.06c8.78-3.46,11.82-8.31,10.5-17.45
		c-6.15-42.63-11.88-85.32-17.95-127.97c-3.68-25.83,15.8-45.55,41.53-41.92c42.65,6.02,85.34,11.78,127.97,17.93
		c9.02,1.3,14.11-1.23,17.64-10.16c15.63-39.43,32.08-78.53,47.86-117.89c4.73-11.8,12.15-20.31,24.1-24.76c7.02,0,14.05,0,21.07,0
		c5.83,3.86,11.94,7.37,17.45,11.63c32.71,25.31,65.41,50.63,97.78,76.36c6.74,5.36,11.43,5.5,18.2,0.04
		c22.63-18.27,45.61-36.12,68.74-53.75C633.16,22.62,647.3,9.35,664.32,0c7.73,0,15.45,0,23.18,0
		c12.31,6.24,19.09,16.67,24.05,29.29c14.75,37.56,30.51,74.72,45.07,112.35c3.81,9.85,9.23,12.69,19.04,11.28
		c41.98-6.06,84.04-11.62,126.01-17.71c27.01-3.92,46.35,15.58,42.43,42.79c-6.1,42.33-11.64,84.74-17.79,127.07
		c-1.33,9.14,1.3,13.65,10.24,17.14c39.22,15.31,78.05,31.61,117.15,47.24c12.06,4.82,21.21,12.12,25.71,24.57
		c0,7.02,0,14.05,0,21.07c-4.51,6.66-8.67,13.6-13.58,19.95c-24.66,31.88-49.33,63.74-74.43,95.27c-5.38,6.76-5.56,11.58,0.01,18.2
		c10.82,12.87,21.12,26.2,31.17,39.68c18.83,25.26,40.28,48.56,56.83,75.53c0,7.02,0,14.05,0,21.07
		c-4.68,12.3-13.67,19.66-25.8,24.49c-38.79,15.43-77.28,31.63-116.12,46.94c-9.14,3.6-12.45,8.51-11.05,18.17
		c6.07,41.98,11.56,84.04,17.64,126.02c4.04,27.87-15.13,47.06-43.02,43.03c-41.98-6.07-84.04-11.57-126.02-17.67
		c-9.39-1.37-14.33,0.89-18.04,10.49c-14.91,38.62-30.82,76.85-46.46,115.19c-12.53,30.73-36.13,37.07-62.55,16.64
		c-32.76-25.34-65.5-50.71-97.87-76.54c-7.32-5.84-12.35-6.25-19.91-0.21c-32.61,26.09-65.66,51.64-98.7,77.19
		c-25.81,19.95-49.68,13.54-61.93-16.44c-15.66-38.33-31.54-76.57-46.57-115.14c-3.9-10-9.46-12.18-19.26-10.75
		c-42.66,6.25-85.37,12.14-128.1,17.89c-24.13,3.25-43.58-16.27-40.32-40.39c5.78-42.73,11.69-85.44,17.92-128.1
		c1.43-9.78-0.84-15.35-10.82-19.26c-38.87-15.23-77.31-31.57-116.09-47.05C14.23,704.44,5.13,697.22,0.59,684.79z M339.61,508.08
		c-20.16-0.03-33.06,13.11-33.29,31.8c-0.14,11.57,5.6,19.83,13.3,27.52c41.25,41.14,82.4,82.39,123.62,123.57
		c20.97,20.95,37.67,20.99,58.6,0.08c85.4-85.35,170.77-170.72,256.11-256.14c3.95-3.95,8.04-8.01,10.95-12.71
		c6.62-10.67,6.76-22.17,0.88-33.08c-5.77-10.71-15.3-15.74-27.69-16c-12.49-0.27-20.95,6.43-29.1,14.59
		c-76.63,76.74-153.34,153.41-230.03,230.09c-10.31,10.31-10.38,10.31-20.48,0.22c-32.29-32.24-64.58-64.48-96.8-96.78
		C358.01,513.57,349.76,507.35,339.61,508.08z"/>
</g>
</svg>
