<?xml version="1.0" encoding="utf-8"?>
<!-- Generator: Adobe Illustrator 23.0.0, SVG Export Plug-In . SVG Version: 6.00 Build 0)  -->
<svg version="1.1" id="Layer_1" xmlns="http://www.w3.org/2000/svg" xmlns:xlink="http://www.w3.org/1999/xlink" x="0px" y="0px"
	 viewBox="0 0 2956 446" style="enable-background:new 0 0 2956 446;" xml:space="preserve">
<style type="text/css">
	.st0{fill:#FFFFFF;}
	.st1{fill:#F0F0F0;}
</style>
<g>
	<g>
		<path d="M2356,446H0V279.97C0,125.35,125.35,0,279.97,0H2356V446z"/>
		<g>
			<path class="st0" d="M133.18,289.36l37.52-44.8c22.4,18.76,45.36,27.72,66.08,27.72c8.4,0,14.28-3.08,14.28-8.68
				c0-6.16-3.64-8.12-32.2-18.76c-36.4-13.44-53.48-26.32-53.48-55.16c0-37.8,34.72-68.6,88.2-68.6c35,0,66.08,11.2,87.36,29.4
				l-37.52,44.8c-14.84-12.04-35.84-21.84-56.56-21.84c-8.4,0-14.28,2.24-14.28,7.84c0,5.88,4.2,7,31.36,17.08
				c33.32,12.32,54.6,26.32,54.6,56.28c0,39.48-32.48,70.28-88.76,70.28C190.86,324.92,156.98,310.92,133.18,289.36z"/>
			<path class="st0" d="M342.35,236.16c0-60.76,49.56-115.08,115.36-115.08c57.68,0,97.44,38.64,97.44,88.76
				c0,60.76-49.56,115.08-115.36,115.08C382.11,324.92,342.35,286.28,342.35,236.16z M489.35,215.72c0-20.72-12.6-36.96-36.12-36.96
				c-27.44,0-45.08,26.88-45.08,51.52c0,20.72,12.6,36.96,36.12,36.96C471.71,267.24,489.35,240.36,489.35,215.72z"/>
			<path class="st0" d="M575.31,239.24c0-53.48,41.16-118.44,125.72-118.44c42.28,0,72.24,22.4,80.36,57.12l-58.52,25.48
				c-4.2-15.96-15.68-23.8-30.52-23.8c-29.4,0-48.44,26.88-48.44,53.76c0,21.56,13.44,33.6,30.8,33.6
				c15.12,0,27.44-7.28,38.08-20.44l45.36,35.84c-19.6,25.76-48.16,42.84-89.88,42.84C613.39,325.2,575.31,291.88,575.31,239.24z"/>
			<path class="st0" d="M787.26,239.24c0-53.48,41.16-118.44,125.72-118.44c42.28,0,72.24,22.4,80.36,57.12l-58.52,25.48
				c-4.2-15.96-15.68-23.8-30.52-23.8c-29.4,0-48.44,26.88-48.44,53.76c0,21.56,13.44,33.6,30.8,33.6
				c15.12,0,27.44-7.28,38.08-20.44l45.36,35.84c-19.6,25.76-48.16,42.84-89.88,42.84C825.34,325.2,787.26,291.88,787.26,239.24z"/>
			<path class="st0" d="M1035.06,125h167.16l-14.56,53.76H1084.9l-5.32,19.88h95.76l-12.6,47.32h-95.76l-5.88,21.28h104.16
				L1150.98,321H982.42L1035.06,125z"/>
			<path class="st0" d="M1234.7,125h76.44c36.12,0,59.08,7.84,72.24,21c10.92,10.92,15.4,25.48,15.4,40.88
				c0,30.52-15.96,56.84-54.6,68.88l27.16,65.24h-70.56l-21.84-56h-16.24l-15.12,56h-65.52L1234.7,125z M1298.82,218.24
				c21.84,0,33.32-10.08,33.32-22.4c0-3.92-1.4-7.56-4.2-10.36c-3.64-3.64-10.08-5.6-19.32-5.6h-23.24l-10.36,38.36H1298.82z"/>
			<path class="st0" d="M1445.54,125h65.8c36.12,0,58.24,7,72.8,21.56c10.36,10.36,15.4,24.08,15.4,39.48
				c0,49-36.96,81.76-99.12,81.76h-27.72l-14.28,53.2h-65.52L1445.54,125z M1497.06,221.04c24.92,0,36.4-11.2,36.4-26.04
				c0-4.2-1.68-8.4-4.76-11.48c-4.48-4.48-12.32-6.16-19.6-6.16h-12.32l-11.48,43.68H1497.06z"/>
			<path class="st0" d="M1642.94,125h65.52l-37.52,140h89.32l-15.12,56H1590.3L1642.94,125z"/>
			<path class="st0" d="M1892.13,123.6h64.96l29.68,197.4h-69.72l-3.36-26.32h-68.6L1828.01,321h-71.4L1892.13,123.6z
				 M1910.05,248.2l-5.32-47.6l-30.52,47.6H1910.05z"/>
			<path class="st0" d="M2047.82,246.24L2009.46,125h68.88l15.96,65.52l50.96-65.52h77.56l-111.44,129.36L2093.46,321h-65.52
				L2047.82,246.24z"/>
		</g>
	</g>
	<g>
		<path class="st1" d="M2682.09,446H2356V0h600v172.09C2956,323.37,2833.37,446,2682.09,446z"/>
		<g>
			<path d="M2527.34,164.06h-59.64l10.64-39.76h162.4l-10.64,39.76h-59.64l-42,156.24h-43.12L2527.34,164.06z"/>
			<path d="M2649.42,124.3h46.2l13.44,136.64l86.8-136.64h48.44l-131.32,197.4h-38.08L2649.42,124.3z"/>
		</g>
	</g>
</g>
</svg>
