<?xml version="1.0" encoding="utf-8"?>
<!-- Generator: Adobe Illustrator 23.0.0, SVG Export Plug-In . SVG Version: 6.00 Build 0)  -->
<svg version="1.1" id="Layer_1" xmlns="http://www.w3.org/2000/svg" xmlns:xlink="http://www.w3.org/1999/xlink" x="0px" y="0px"
	 viewBox="0 0 2956 446" style="enable-background:new 0 0 2956 446;" xml:space="preserve">
<style type="text/css">
	.st0{fill:#FFFFFF;}
	.st1{fill:#2B2B2B;}
	.st2{fill:#F0F0F0;}
</style>
<g>
	<g>
		<path class="st0" d="M2356,446H0V280C0,125.3,125.3,0,280,0h2076V446z"/>
		<g>
			<path d="M133.2,289.4l37.5-44.8c22.4,18.8,45.4,27.7,66.1,27.7c8.4,0,14.3-3.1,14.3-8.7c0-6.2-3.6-8.1-32.2-18.8
				c-36.4-13.4-53.5-26.3-53.5-55.2c0-37.8,34.7-68.6,88.2-68.6c35,0,66.1,11.2,87.4,29.4l-37.5,44.8c-14.8-12-35.8-21.8-56.6-21.8
				c-8.4,0-14.3,2.2-14.3,7.8c0,5.9,4.2,7,31.4,17.1c33.3,12.3,54.6,26.3,54.6,56.3c0,39.5-32.5,70.3-88.8,70.3
				C190.9,324.9,157,310.9,133.2,289.4z"/>
			<path d="M342.4,236.2c0-60.8,49.6-115.1,115.4-115.1c57.7,0,97.4,38.6,97.4,88.8c0,60.8-49.6,115.1-115.4,115.1
				C382.1,324.9,342.4,286.3,342.4,236.2z M489.4,215.7c0-20.7-12.6-37-36.1-37c-27.4,0-45.1,26.9-45.1,51.5c0,20.7,12.6,37,36.1,37
				C471.7,267.2,489.4,240.4,489.4,215.7z"/>
			<path d="M575.3,239.2c0-53.5,41.2-118.4,125.7-118.4c42.3,0,72.2,22.4,80.4,57.1l-58.5,25.5c-4.2-16-15.7-23.8-30.5-23.8
				c-29.4,0-48.4,26.9-48.4,53.8c0,21.6,13.4,33.6,30.8,33.6c15.1,0,27.4-7.3,38.1-20.4l45.4,35.8c-19.6,25.8-48.2,42.8-89.9,42.8
				C613.4,325.2,575.3,291.9,575.3,239.2z"/>
			<path d="M787.3,239.2c0-53.5,41.2-118.4,125.7-118.4c42.3,0,72.2,22.4,80.4,57.1l-58.5,25.5c-4.2-16-15.7-23.8-30.5-23.8
				c-29.4,0-48.4,26.9-48.4,53.8c0,21.6,13.4,33.6,30.8,33.6c15.1,0,27.4-7.3,38.1-20.4l45.4,35.8c-19.6,25.8-48.2,42.8-89.9,42.8
				C825.3,325.2,787.3,291.9,787.3,239.2z"/>
			<path d="M1035.1,125h167.2l-14.6,53.8h-102.8l-5.3,19.9h95.8l-12.6,47.3H1067l-5.9,21.3h104.2L1151,321H982.4L1035.1,125z"/>
			<path d="M1234.7,125h76.4c36.1,0,59.1,7.8,72.2,21c10.9,10.9,15.4,25.5,15.4,40.9c0,30.5-16,56.8-54.6,68.9l27.2,65.2h-70.6
				l-21.8-56h-16.2l-15.1,56h-65.5L1234.7,125z M1298.8,218.2c21.8,0,33.3-10.1,33.3-22.4c0-3.9-1.4-7.6-4.2-10.4
				c-3.6-3.6-10.1-5.6-19.3-5.6h-23.2l-10.4,38.4H1298.8z"/>
			<path d="M1445.5,125h65.8c36.1,0,58.2,7,72.8,21.6c10.4,10.4,15.4,24.1,15.4,39.5c0,49-37,81.8-99.1,81.8h-27.7l-14.3,53.2h-65.5
				L1445.5,125z M1497.1,221c24.9,0,36.4-11.2,36.4-26c0-4.2-1.7-8.4-4.8-11.5c-4.5-4.5-12.3-6.2-19.6-6.2h-12.3l-11.5,43.7
				L1497.1,221L1497.1,221z"/>
			<path d="M1642.9,125h65.5l-37.5,140h89.3l-15.1,56h-154.8L1642.9,125z"/>
			<path d="M1892.1,123.6h65l29.7,197.4h-69.7l-3.4-26.3h-68.6L1828,321h-71.4L1892.1,123.6z M1910.1,248.2l-5.3-47.6l-30.5,47.6
				L1910.1,248.2L1910.1,248.2z"/>
			<path d="M2047.8,246.2L2009.5,125h68.9l16,65.5l51-65.5h77.6l-111.4,129.4l-17.9,66.6h-65.5L2047.8,246.2z"/>
		</g>
	</g>
	<g>
		<path class="st1" d="M2682.1,446H2356V0h600v172.1C2956,323.4,2833.4,446,2682.1,446z"/>
		<g>
			<path class="st2" d="M2527.3,164.1h-59.6l10.6-39.8h162.4l-10.6,39.8h-59.6l-42,156.2h-43.1L2527.3,164.1z"/>
			<path class="st2" d="M2649.4,124.3h46.2l13.4,136.6l86.8-136.6h48.4L2713,321.7h-38.1L2649.4,124.3z"/>
		</g>
	</g>
</g>
</svg>
